<svg xmlns="http://www.w3.org/2000/svg" xmlns:xlink="http://www.w3.org/1999/xlink" contentStyleType="text/css" data-diagram-type="CLASS" height="1027px" preserveAspectRatio="none" style="width:3263px;height:1027px;background:#FFFFFF;" version="1.1" viewBox="0 0 3263 1027" width="3263px" zoomAndPan="magnify"><?plantuml 1.2026.3beta6?><defs/><g><g class="title" data-source-line="1"><text fill="#000000" font-family="sans-serif" font-size="14" font-weight="700" lengthAdjust="spacing" textLength="212.3789" x="1522.0855" y="22.9951">PancakeLab Class Diagram</text></g><!--cluster org--><g class="cluster" data-qualified-name="org" data-source-line="7" id="ent0004"><rect fill="none" height="969.2" rx="2.5" ry="2.5" style="stroke:#000000;stroke-width:1.5;" width="3228" x="21.55" y="44.2969"/><text fill="#000000" font-family="sans-serif" font-size="14" font-weight="700" lengthAdjust="spacing" textLength="26.5439" x="1622.278" y="59.292">org</text></g><!--cluster pancakelab--><g class="cluster" data-qualified-name="org.pancakelab" data-source-line="7" id="ent0005"><rect fill="none" height="902.2" rx="2.5" ry="2.5" style="stroke:#000000;stroke-width:1.5;" width="3180" x="45.55" y="87.2969"/><text fill="#000000" font-family="sans-serif" font-size="14" font-weight="700" lengthAdjust="spacing" textLength="90.2549" x="1590.4226" y="102.292">pancakelab</text></g><!--cluster dto--><g class="cluster" data-qualified-name="org.pancakelab.dto" data-source-line="6" id="ent0002"><rect fill="none" height="172.45" rx="2.5" ry="2.5" style="stroke:#000000;stroke-width:1.5;" width="395" x="1838.55" y="535.6569"/><text fill="#000000" font-family="sans-serif" font-size="14" font-weight="700" lengthAdjust="spacing" textLength="26.332" x="2022.884" y="550.652">dto</text></g><!--cluster enums--><g class="cluster" data-qualified-name="org.pancakelab.enums" data-source-line="21" id="ent0007"><rect fill="none" height="180.48" rx="2.5" ry="2.5" style="stroke:#000000;stroke-width:1.5;" width="365" x="1788.55" y="785.0169"/><text fill="#000000" font-family="sans-serif" font-size="14" font-weight="700" lengthAdjust="spacing" textLength="52.3496" x="1944.8752" y="800.012">enums</text></g><!--cluster model--><g class="cluster" data-qualified-name="org.pancakelab.model" data-source-line="39" id="ent0010"><rect fill="none" height="468.26" rx="2.5" ry="2.5" style="stroke:#000000;stroke-width:1.5;" width="624" x="1140.55" y="496.7869"/><text fill="#000000" font-family="sans-serif" font-size="14" font-weight="700" lengthAdjust="spacing" textLength="48.5215" x="1428.2893" y="511.782">model</text></g><!--cluster pancakes--><g class="cluster" data-qualified-name="org.pancakelab.model.pancakes" data-source-line="53" id="ent0012"><rect fill="none" height="401.26" rx="2.5" ry="2.5" style="stroke:#000000;stroke-width:1.5;" width="334" x="1406.55" y="539.7869"/><text fill="#000000" font-family="sans-serif" font-size="14" font-weight="700" lengthAdjust="spacing" textLength="74.3203" x="1536.3898" y="554.782">pancakes</text></g><!--cluster repository--><g class="cluster" data-qualified-name="org.pancakelab.repository" data-source-line="69" id="ent0015"><rect fill="none" height="532.94" rx="2.5" ry="2.5" style="stroke:#000000;stroke-width:1.5;" width="997" x="119.55" y="228.0769"/><text fill="#000000" font-family="sans-serif" font-size="14" font-weight="700" lengthAdjust="spacing" textLength="81.5117" x="577.2941" y="243.072">repository</text></g><!--cluster service--><g class="cluster" data-qualified-name="org.pancakelab.service" data-source-line="109" id="ent0020"><rect fill="none" height="581.83" rx="2.5" ry="2.5" style="stroke:#000000;stroke-width:1.5;" width="944" x="2257.55" y="130.2969"/><text fill="#000000" font-family="sans-serif" font-size="14" font-weight="700" lengthAdjust="spacing" textLength="56.4512" x="2701.3244" y="145.292">service</text></g><!--class OrderInfo--><g class="entity" data-qualified-name="org.pancakelab.dto.OrderInfo" data-source-line="7" id="ent0003"><rect fill="#F1F1F1" height="105.1563" rx="2.5" ry="2.5" style="stroke:#181818;stroke-width:0.5;" width="123.1523" x="1854.97" y="578.7969"/><ellipse cx="1881.0513" cy="598.9297" fill="#ADD1B2" rx="11" ry="11" style="stroke:#181818;stroke-width:1;"/><path d="M1884.02,604.5703 Q1883.4419,604.8672 1882.8013,605.0078 Q1882.1606,605.1641 1881.4575,605.1641 Q1878.9575,605.1641 1877.6294,603.5234 Q1876.3169,601.8672 1876.3169,598.7422 Q1876.3169,595.6172 1877.6294,593.9609 Q1878.9575,592.3047 1881.4575,592.3047 Q1882.1606,592.3047 1882.8013,592.4609 Q1883.4575,592.6172 1884.02,592.9141 L1884.02,595.6328 Q1883.395,595.0547 1882.8013,594.7891 Q1882.2075,594.5078 1881.5825,594.5078 Q1880.2388,594.5078 1879.5513,595.5859 Q1878.8638,596.6484 1878.8638,598.7422 Q1878.8638,600.8359 1879.5513,601.9141 Q1880.2388,602.9766 1881.5825,602.9766 Q1882.2075,602.9766 1882.8013,602.7109 Q1883.395,602.4297 1884.02,601.8516 L1884.02,604.5703 Z " fill="#000000"/><text fill="#000000" font-family="sans-serif" font-size="12" font-style="italic" lengthAdjust="spacing" textLength="53.4902" x="1904.0323" y="594.9355">&#171;record&#187;</text><text fill="#000000" font-family="sans-serif" font-size="14" lengthAdjust="spacing" textLength="66.5273" x="1897.5138" y="610.7607">OrderInfo</text><line style="stroke:#181818;stroke-width:0.5;" x1="1855.97" x2="1977.1223" y1="619.0625" y2="619.0625"/><line style="stroke:#181818;stroke-width:0.5;" x1="1855.97" x2="1977.1223" y1="627.0625" y2="627.0625"/><text fill="#000000" font-family="sans-serif" font-size="14" lengthAdjust="spacing" textLength="111.1523" x="1860.97" y="644.0576">+id()       : UUID</text><text fill="#000000" font-family="sans-serif" font-size="14" lengthAdjust="spacing" textLength="110.5986" x="1860.97" y="660.3545">+building() : int</text><text fill="#000000" font-family="sans-serif" font-size="14" lengthAdjust="spacing" textLength="108.8486" x="1860.97" y="676.6514">+room()     : int</text></g><!--class DeliveryInfo--><g class="entity" data-qualified-name="org.pancakelab.dto.DeliveryInfo" data-source-line="13" id="ent0006"><rect fill="#F1F1F1" height="121.4531" rx="2.5" ry="2.5" style="stroke:#181818;stroke-width:0.5;" width="204.6162" x="2013.24" y="570.6569"/><ellipse cx="2068.9939" cy="590.7897" fill="#ADD1B2" rx="11" ry="11" style="stroke:#181818;stroke-width:1;"/><path d="M2071.9627,596.4303 Q2071.3845,596.7272 2070.7439,596.8678 Q2070.1033,597.0241 2069.4002,597.0241 Q2066.9002,597.0241 2065.572,595.3834 Q2064.2595,593.7272 2064.2595,590.6022 Q2064.2595,587.4772 2065.572,585.8209 Q2066.9002,584.1647 2069.4002,584.1647 Q2070.1033,584.1647 2070.7439,584.3209 Q2071.4002,584.4772 2071.9627,584.7741 L2071.9627,587.4928 Q2071.3377,586.9147 2070.7439,586.6491 Q2070.1502,586.3678 2069.5252,586.3678 Q2068.1814,586.3678 2067.4939,587.4459 Q2066.8064,588.5084 2066.8064,590.6022 Q2066.8064,592.6959 2067.4939,593.7741 Q2068.1814,594.8366 2069.5252,594.8366 Q2070.1502,594.8366 2070.7439,594.5709 Q2071.3377,594.2897 2071.9627,593.7116 L2071.9627,596.4303 Z " fill="#000000"/><text fill="#000000" font-family="sans-serif" font-size="12" font-style="italic" lengthAdjust="spacing" textLength="53.4902" x="2105.053" y="586.7955">&#171;record&#187;</text><text fill="#000000" font-family="sans-serif" font-size="14" lengthAdjust="spacing" textLength="84.6084" x="2089.4939" y="602.6207">DeliveryInfo</text><line style="stroke:#181818;stroke-width:0.5;" x1="2014.24" x2="2216.8562" y1="610.9225" y2="610.9225"/><line style="stroke:#181818;stroke-width:0.5;" x1="2014.24" x2="2216.8562" y1="618.9225" y2="618.9225"/><text fill="#000000" font-family="sans-serif" font-size="14" lengthAdjust="spacing" textLength="126.7178" x="2019.24" y="635.9176">+orderId()  : UUID</text><text fill="#000000" font-family="sans-serif" font-size="14" lengthAdjust="spacing" textLength="110.5986" x="2019.24" y="652.2145">+building() : int</text><text fill="#000000" font-family="sans-serif" font-size="14" lengthAdjust="spacing" textLength="108.8486" x="2019.24" y="668.5114">+room()     : int</text><text fill="#000000" font-family="sans-serif" font-size="14" lengthAdjust="spacing" textLength="192.6162" x="2019.24" y="684.8082">+pancakes() : List&lt;String&gt;</text></g><!--class Ingredient--><g class="entity" data-qualified-name="org.pancakelab.enums.Ingredient" data-source-line="22" id="ent0008"><rect fill="#F1F1F1" height="129.4844" rx="2.5" ry="2.5" style="stroke:#181818;stroke-width:0.5;" width="181.0664" x="1805.02" y="820.0169"/><ellipse cx="1855.2983" cy="836.0169" fill="#EB937F" rx="11" ry="11" style="stroke:#181818;stroke-width:1;"/><path d="M1859.4077,842.0169 L1851.6889,842.0169 L1851.6889,829.6263 L1859.4077,829.6263 L1859.4077,831.7825 L1854.1421,831.7825 L1854.1421,834.4544 L1858.9077,834.4544 L1858.9077,836.6106 L1854.1421,836.6106 L1854.1421,839.8606 L1859.4077,839.8606 L1859.4077,842.0169 Z " fill="#000000"/><text fill="#000000" font-family="sans-serif" font-size="14" lengthAdjust="spacing" textLength="72.0098" x="1875.7983" y="840.8636">Ingredient</text><line style="stroke:#181818;stroke-width:0.5;" x1="1806.02" x2="1985.0864" y1="852.0169" y2="852.0169"/><text fill="#000000" font-family="sans-serif" font-size="14" lengthAdjust="spacing" textLength="133.1572" x="1811.02" y="869.012">DARK_CHOCOLATE</text><text fill="#000000" font-family="sans-serif" font-size="14" lengthAdjust="spacing" textLength="127.0801" x="1811.02" y="885.3089">MILK_CHOCOLATE</text><text fill="#000000" font-family="sans-serif" font-size="14" lengthAdjust="spacing" textLength="122.0146" x="1811.02" y="901.6057">WHIPPED_CREAM</text><text fill="#000000" font-family="sans-serif" font-size="14" lengthAdjust="spacing" textLength="84.499" x="1811.02" y="917.9026">HAZELNUTS</text><line style="stroke:#181818;stroke-width:1;" x1="1806.02" x2="1985.0864" y1="925.2044" y2="925.2044"/><text fill="#000000" font-family="sans-serif" font-size="14" lengthAdjust="spacing" textLength="169.0664" x="1811.02" y="942.1995">+displayName() : String</text></g><!--class OrderStatus--><g class="entity" data-qualified-name="org.pancakelab.enums.OrderStatus" data-source-line="31" id="ent0009"><rect fill="#F1F1F1" height="113.1875" rx="2.5" ry="2.5" style="stroke:#181818;stroke-width:0.5;" width="116.6426" x="2021.23" y="828.1569"/><ellipse cx="2036.23" cy="844.1569" fill="#EB937F" rx="11" ry="11" style="stroke:#181818;stroke-width:1;"/><path d="M2040.3394,850.1569 L2032.6206,850.1569 L2032.6206,837.7663 L2040.3394,837.7663 L2040.3394,839.9225 L2035.0738,839.9225 L2035.0738,842.5944 L2039.8394,842.5944 L2039.8394,844.7506 L2035.0738,844.7506 L2035.0738,848.0006 L2040.3394,848.0006 L2040.3394,850.1569 Z " fill="#000000"/><text fill="#000000" font-family="sans-serif" font-size="14" lengthAdjust="spacing" textLength="84.6426" x="2050.23" y="849.0036">OrderStatus</text><line style="stroke:#181818;stroke-width:0.5;" x1="2022.23" x2="2136.8726" y1="860.1569" y2="860.1569"/><text fill="#000000" font-family="sans-serif" font-size="14" lengthAdjust="spacing" textLength="38.7803" x="2027.23" y="877.152">OPEN</text><text fill="#000000" font-family="sans-serif" font-size="14" lengthAdjust="spacing" textLength="86.1396" x="2027.23" y="893.4489">COMPLETED</text><text fill="#000000" font-family="sans-serif" font-size="14" lengthAdjust="spacing" textLength="74.3887" x="2027.23" y="909.7457">PREPARED</text><text fill="#000000" font-family="sans-serif" font-size="14" lengthAdjust="spacing" textLength="79.3311" x="2027.23" y="926.0426">DELIVERED</text><line style="stroke:#181818;stroke-width:0.5;" x1="2022.23" x2="2136.8726" y1="933.3444" y2="933.3444"/></g><!--class Order--><g class="entity" data-qualified-name="org.pancakelab.model.Order" data-source-line="40" id="ent0011"><rect fill="#F1F1F1" height="194.6719" rx="2.5" ry="2.5" style="stroke:#181818;stroke-width:0.5;" width="231.0234" x="1157.04" y="534.0469"/><ellipse cx="1248.2861" cy="550.0469" fill="#ADD1B2" rx="11" ry="11" style="stroke:#181818;stroke-width:1;"/><path d="M1251.2548,555.6875 Q1250.6767,555.9844 1250.0361,556.125 Q1249.3955,556.2813 1248.6923,556.2813 Q1246.1923,556.2813 1244.8642,554.6406 Q1243.5517,552.9844 1243.5517,549.8594 Q1243.5517,546.7344 1244.8642,545.0781 Q1246.1923,543.4219 1248.6923,543.4219 Q1249.3955,543.4219 1250.0361,543.5781 Q1250.6923,543.7344 1251.2548,544.0313 L1251.2548,546.75 Q1250.6298,546.1719 1250.0361,545.9063 Q1249.4423,545.625 1248.8173,545.625 Q1247.4736,545.625 1246.7861,546.7031 Q1246.0986,547.7656 1246.0986,549.8594 Q1246.0986,551.9531 1246.7861,553.0313 Q1247.4736,554.0938 1248.8173,554.0938 Q1249.4423,554.0938 1250.0361,553.8281 Q1250.6298,553.5469 1251.2548,552.9688 L1251.2548,555.6875 Z " fill="#000000"/><text fill="#000000" font-family="sans-serif" font-size="14" lengthAdjust="spacing" textLength="40.0313" x="1268.7861" y="554.8936">Order</text><line style="stroke:#181818;stroke-width:0.5;" x1="1158.04" x2="1387.0634" y1="566.0469" y2="566.0469"/><text fill="#000000" font-family="sans-serif" font-size="14" lengthAdjust="spacing" textLength="93.5498" x="1163.04" y="583.042">-id       : UUID</text><text fill="#000000" font-family="sans-serif" font-size="14" lengthAdjust="spacing" textLength="92.9961" x="1163.04" y="599.3389">-building : int</text><text fill="#000000" font-family="sans-serif" font-size="14" lengthAdjust="spacing" textLength="91.2461" x="1163.04" y="615.6357">-room     : int</text><line style="stroke:#181818;stroke-width:1;" x1="1158.04" x2="1387.0634" y1="622.9375" y2="622.9375"/><text fill="#000000" font-family="sans-serif" font-size="14" lengthAdjust="spacing" textLength="219.0234" x="1163.04" y="639.9326">+Order(building: int, room: int)</text><text fill="#000000" font-family="sans-serif" font-size="14" lengthAdjust="spacing" textLength="134.3809" x="1163.04" y="656.2295">+getId()       : UUID</text><text fill="#000000" font-family="sans-serif" font-size="14" lengthAdjust="spacing" textLength="134.3057" x="1163.04" y="672.5264">+getBuilding() : int</text><text fill="#000000" font-family="sans-serif" font-size="14" lengthAdjust="spacing" textLength="135.8096" x="1163.04" y="688.8232">+getRoom()     : int</text><text fill="#000000" font-family="sans-serif" font-size="14" lengthAdjust="spacing" textLength="201.708" x="1163.04" y="705.1201">+equals(o: Object) : boolean</text><text fill="#000000" font-family="sans-serif" font-size="14" lengthAdjust="spacing" textLength="137.334" x="1163.04" y="721.417">+hashCode()    : int</text></g><!--class PancakeRecipe--><g class="entity" data-qualified-name="org.pancakelab.model.pancakes.PancakeRecipe" data-source-line="54" id="ent0013"><rect fill="#F1F1F1" height="80.5938" rx="2.5" ry="2.5" style="stroke:#181818;stroke-width:0.5;" width="217.0508" x="1444.02" y="844.4569"/><ellipse cx="1495.1357" cy="860.4569" fill="#B4A7E5" rx="11" ry="11" style="stroke:#181818;stroke-width:1;"/><path d="M1491.0576,856.2225 L1491.0576,854.0663 L1498.4482,854.0663 L1498.4482,856.2225 L1495.9795,856.2225 L1495.9795,864.3006 L1498.4482,864.3006 L1498.4482,866.4569 L1491.0576,866.4569 L1491.0576,864.3006 L1493.5263,864.3006 L1493.5263,856.2225 L1491.0576,856.2225 Z " fill="#000000"/><text fill="#000000" font-family="sans-serif" font-size="14" font-style="italic" lengthAdjust="spacing" textLength="106.3193" x="1515.6357" y="865.3036">PancakeRecipe</text><line style="stroke:#181818;stroke-width:0.5;" x1="1445.02" x2="1660.0708" y1="876.4569" y2="876.4569"/><line style="stroke:#181818;stroke-width:0.5;" x1="1445.02" x2="1660.0708" y1="884.4569" y2="884.4569"/><text fill="#000000" font-family="sans-serif" font-size="14" lengthAdjust="spacing" textLength="205.0508" x="1450.02" y="901.452">+ingredients() : List&lt;String&gt;</text><text fill="#000000" font-family="sans-serif" font-size="14" lengthAdjust="spacing" textLength="155.8936" x="1450.02" y="917.7489">+description() : String</text></g><!--class Pancake--><g class="entity" data-qualified-name="org.pancakelab.model.pancakes.Pancake" data-source-line="59" id="ent0014"><rect fill="#F1F1F1" height="113.1875" rx="2.5" ry="2.5" style="stroke:#181818;stroke-width:0.5;" width="301.7207" x="1422.69" y="574.7869"/><ellipse cx="1539.8546" cy="590.7869" fill="#ADD1B2" rx="11" ry="11" style="stroke:#181818;stroke-width:1;"/><path d="M1542.8233,596.4275 Q1542.2452,596.7244 1541.6046,596.865 Q1540.9639,597.0213 1540.2608,597.0213 Q1537.7608,597.0213 1536.4327,595.3806 Q1535.1202,593.7244 1535.1202,590.5994 Q1535.1202,587.4744 1536.4327,585.8181 Q1537.7608,584.1619 1540.2608,584.1619 Q1540.9639,584.1619 1541.6046,584.3181 Q1542.2608,584.4744 1542.8233,584.7713 L1542.8233,587.49 Q1542.1983,586.9119 1541.6046,586.6463 Q1541.0108,586.365 1540.3858,586.365 Q1539.0421,586.365 1538.3546,587.4431 Q1537.6671,588.5056 1537.6671,590.5994 Q1537.6671,592.6931 1538.3546,593.7713 Q1539.0421,594.8338 1540.3858,594.8338 Q1541.0108,594.8338 1541.6046,594.5681 Q1542.1983,594.2869 1542.8233,593.7088 L1542.8233,596.4275 Z " fill="#000000"/><text fill="#000000" font-family="sans-serif" font-size="14" lengthAdjust="spacing" textLength="58.8916" x="1560.3546" y="595.6336">Pancake</text><line style="stroke:#181818;stroke-width:0.5;" x1="1423.69" x2="1723.4107" y1="606.7869" y2="606.7869"/><text fill="#000000" font-family="sans-serif" font-size="14" lengthAdjust="spacing" textLength="217.6768" x="1428.69" y="623.782">-ingredients : List&lt;Ingredient&gt;</text><line style="stroke:#181818;stroke-width:1;" x1="1423.69" x2="1723.4107" y1="631.0838" y2="631.0838"/><text fill="#000000" font-family="sans-serif" font-size="14" lengthAdjust="spacing" textLength="289.7207" x="1428.69" y="648.0789">+Pancake(ingredients: List&lt;Ingredient&gt;)</text><text fill="#000000" font-family="sans-serif" font-size="14" lengthAdjust="spacing" textLength="205.0508" x="1428.69" y="664.3757">+ingredients() : List&lt;String&gt;</text><text fill="#000000" font-family="sans-serif" font-size="14" lengthAdjust="spacing" textLength="155.8936" x="1428.69" y="680.6726">+description() : String</text></g><!--class OrderRepository--><g class="entity" data-qualified-name="org.pancakelab.repository.OrderRepository" data-source-line="70" id="ent0016"><rect fill="#F1F1F1" height="227.2656" rx="2.5" ry="2.5" style="stroke:#181818;stroke-width:0.5;" width="409.4824" x="690.81" y="517.7469"/><ellipse cx="833.7495" cy="533.7469" fill="#B4A7E5" rx="11" ry="11" style="stroke:#181818;stroke-width:1;"/><path d="M829.6713,529.5125 L829.6713,527.3563 L837.062,527.3563 L837.062,529.5125 L834.5932,529.5125 L834.5932,537.5906 L837.062,537.5906 L837.062,539.7469 L829.6713,539.7469 L829.6713,537.5906 L832.1401,537.5906 L832.1401,529.5125 L829.6713,529.5125 Z " fill="#000000"/><text fill="#000000" font-family="sans-serif" font-size="14" font-style="italic" lengthAdjust="spacing" textLength="115.1035" x="854.2495" y="538.5936">OrderRepository</text><line style="stroke:#181818;stroke-width:0.5;" x1="691.81" x2="1099.2924" y1="549.7469" y2="549.7469"/><line style="stroke:#181818;stroke-width:0.5;" x1="691.81" x2="1099.2924" y1="557.7469" y2="557.7469"/><text fill="#000000" font-family="sans-serif" font-size="14" lengthAdjust="spacing" textLength="243.2979" x="696.81" y="574.742">+save(order: Order)              : void</text><text fill="#000000" font-family="sans-serif" font-size="14" lengthAdjust="spacing" textLength="347.2041" x="696.81" y="591.0389">+findById(orderId: UUID)         : Optional&lt;Order&gt;</text><text fill="#000000" font-family="sans-serif" font-size="14" lengthAdjust="spacing" textLength="397.4824" x="696.81" y="607.3357">+getStatus(orderId: UUID)        : Optional&lt;OrderStatus&gt;</text><text fill="#000000" font-family="sans-serif" font-size="14" lengthAdjust="spacing" textLength="249.6689" x="696.81" y="623.6326">+delete(orderId: UUID)           : void</text><text fill="#000000" font-family="sans-serif" font-size="14" lengthAdjust="spacing" textLength="286.8496" x="696.81" y="639.9295">+markCompleted(orderId: UUID)    : void</text><text fill="#000000" font-family="sans-serif" font-size="14" lengthAdjust="spacing" textLength="278.4756" x="696.81" y="656.2264">+markPrepared(orderId: UUID)     : void</text><text fill="#000000" font-family="sans-serif" font-size="14" lengthAdjust="spacing" textLength="277.8193" x="696.81" y="672.5232">+markDelivered(orderId: UUID)    : void</text><text fill="#000000" font-family="sans-serif" font-size="14" lengthAdjust="spacing" textLength="297.1992" x="696.81" y="688.8201">+isCompleted(orderId: UUID)      : boolean</text><text fill="#000000" font-family="sans-serif" font-size="14" lengthAdjust="spacing" textLength="288.8252" x="696.81" y="705.117">+isPrepared(orderId: UUID)       : boolean</text><text fill="#000000" font-family="sans-serif" font-size="14" lengthAdjust="spacing" textLength="313.749" x="696.81" y="721.4139">+getCompletedOrders()            : Set&lt;UUID&gt;</text><text fill="#000000" font-family="sans-serif" font-size="14" lengthAdjust="spacing" textLength="305.375" x="696.81" y="737.7107">+getPreparedOrders()             : Set&lt;UUID&gt;</text></g><!--class PancakeRepository--><g class="entity" data-qualified-name="org.pancakelab.repository.PancakeRepository" data-source-line="84" id="ent0017"><rect fill="#F1F1F1" height="210.9688" rx="2.5" ry="2.5" style="stroke:#181818;stroke-width:0.5;" width="519.8076" x="135.65" y="525.8969"/><ellipse cx="324.3219" cy="541.8969" fill="#B4A7E5" rx="11" ry="11" style="stroke:#181818;stroke-width:1;"/><path d="M320.2438,537.6625 L320.2438,535.5063 L327.6344,535.5063 L327.6344,537.6625 L325.1656,537.6625 L325.1656,545.7406 L327.6344,545.7406 L327.6344,547.8969 L320.2438,547.8969 L320.2438,545.7406 L322.7125,545.7406 L322.7125,537.6625 L320.2438,537.6625 Z " fill="#000000"/><text fill="#000000" font-family="sans-serif" font-size="14" font-style="italic" lengthAdjust="spacing" textLength="133.9639" x="344.8219" y="546.7436">PancakeRepository</text><line style="stroke:#181818;stroke-width:0.5;" x1="136.65" x2="654.4576" y1="557.8969" y2="557.8969"/><line style="stroke:#181818;stroke-width:0.5;" x1="136.65" x2="654.4576" y1="565.8969" y2="565.8969"/><text fill="#000000" font-family="sans-serif" font-size="14" lengthAdjust="spacing" textLength="461.1797" x="141.65" y="582.892">+addPancake(orderId: UUID, pancake: PancakeRecipe)        : void</text><text fill="#000000" font-family="sans-serif" font-size="14" lengthAdjust="spacing" textLength="507.8076" x="141.65" y="599.1889">+findByOrderId(orderId: UUID)                             : List&lt;PancakeRecipe&gt;</text><text fill="#000000" font-family="sans-serif" font-size="14" lengthAdjust="spacing" textLength="463.5996" x="141.65" y="615.4857">+removePancakes(orderId: UUID, description: String, n: int) : void</text><text fill="#000000" font-family="sans-serif" font-size="14" lengthAdjust="spacing" textLength="405.1797" x="141.65" y="631.7826">+removeAllByOrderId(orderId: UUID)                        : void</text><text fill="#000000" font-family="sans-serif" font-size="14" lengthAdjust="spacing" textLength="387.3926" x="141.65" y="648.0795">+startPancake(orderId: UUID)                              : UUID</text><text fill="#000000" font-family="sans-serif" font-size="14" lengthAdjust="spacing" textLength="451.9307" x="141.65" y="664.3764">+addIngredient(pancakeId: UUID, ingredient: Ingredient)   : void</text><text fill="#000000" font-family="sans-serif" font-size="14" lengthAdjust="spacing" textLength="485.4814" x="141.65" y="680.6732">+finishPancake(pancakeId: UUID)                           : List&lt;Ingredient&gt;</text><text fill="#000000" font-family="sans-serif" font-size="14" lengthAdjust="spacing" textLength="412.002" x="141.65" y="696.9701">+clearPendingByOrderId(orderId: UUID)                     : void</text><text fill="#000000" font-family="sans-serif" font-size="14" lengthAdjust="spacing" textLength="419.4326" x="141.65" y="713.267">+hasPending(pancakeId: UUID)                              : boolean</text><text fill="#000000" font-family="sans-serif" font-size="14" lengthAdjust="spacing" textLength="420.5674" x="141.65" y="729.5639">+getPendingOwner(pancakeId: UUID)                         : UUID</text></g><!--class InMemoryOrderRepository--><g class="entity" data-qualified-name="org.pancakelab.repository.impl.InMemoryOrderRepository" data-source-line="97" id="ent0018"><rect fill="#F1F1F1" height="80.5938" rx="2.5" ry="2.5" style="stroke:#181818;stroke-width:0.5;" width="271.5469" x="828.78" y="271.2269"/><ellipse cx="868.3072" cy="287.2269" fill="#ADD1B2" rx="11" ry="11" style="stroke:#181818;stroke-width:1;"/><path d="M871.2759,292.8675 Q870.6978,293.1644 870.0572,293.305 Q869.4166,293.4613 868.7134,293.4613 Q866.2134,293.4613 864.8853,291.8206 Q863.5728,290.1644 863.5728,287.0394 Q863.5728,283.9144 864.8853,282.2581 Q866.2134,280.6019 868.7134,280.6019 Q869.4166,280.6019 870.0572,280.7581 Q870.7134,280.9144 871.2759,281.2113 L871.2759,283.93 Q870.6509,283.3519 870.0572,283.0863 Q869.4634,282.805 868.8384,282.805 Q867.4947,282.805 866.8072,283.8831 Q866.1197,284.9456 866.1197,287.0394 Q866.1197,289.1331 866.8072,290.2113 Q867.4947,291.2738 868.8384,291.2738 Q869.4634,291.2738 870.0572,291.0081 Q870.6509,290.7269 871.2759,290.1488 L871.2759,292.8675 Z " fill="#000000"/><text fill="#000000" font-family="sans-serif" font-size="14" lengthAdjust="spacing" textLength="185.042" x="887.7577" y="292.0736">InMemoryOrderRepository</text><line style="stroke:#181818;stroke-width:0.5;" x1="829.78" x2="1099.3269" y1="303.2269" y2="303.2269"/><text fill="#000000" font-family="sans-serif" font-size="14" lengthAdjust="spacing" textLength="209.7813" x="834.78" y="320.222">-orders   : Map&lt;UUID, Order&gt;</text><text fill="#000000" font-family="sans-serif" font-size="14" lengthAdjust="spacing" textLength="259.5469" x="834.78" y="336.5189">-statuses : Map&lt;UUID, OrderStatus&gt;</text><line style="stroke:#181818;stroke-width:0.5;" x1="829.78" x2="1099.3269" y1="343.8206" y2="343.8206"/></g><!--class InMemoryPancakeRepository--><g class="entity" data-qualified-name="org.pancakelab.repository.impl.InMemoryPancakeRepository" data-source-line="102" id="ent0019"><rect fill="#F1F1F1" height="96.8906" rx="2.5" ry="2.5" style="stroke:#181818;stroke-width:0.5;" width="393.3633" x="135.87" y="263.0769"/><ellipse cx="226.3505" cy="279.0769" fill="#ADD1B2" rx="11" ry="11" style="stroke:#181818;stroke-width:1;"/><path d="M229.3192,284.7175 Q228.7411,285.0144 228.1005,285.155 Q227.4598,285.3113 226.7567,285.3113 Q224.2567,285.3113 222.9286,283.6706 Q221.6161,282.0144 221.6161,278.8894 Q221.6161,275.7644 222.9286,274.1081 Q224.2567,272.4519 226.7567,272.4519 Q227.4598,272.4519 228.1005,272.6081 Q228.7567,272.7644 229.3192,273.0613 L229.3192,275.78 Q228.6942,275.2019 228.1005,274.9363 Q227.5067,274.655 226.8817,274.655 Q225.538,274.655 224.8505,275.7331 Q224.163,276.7956 224.163,278.8894 Q224.163,280.9831 224.8505,282.0613 Q225.538,283.1238 226.8817,283.1238 Q227.5067,283.1238 228.1005,282.8581 Q228.6942,282.5769 229.3192,281.9988 L229.3192,284.7175 Z " fill="#000000"/><text fill="#000000" font-family="sans-serif" font-size="14" lengthAdjust="spacing" textLength="203.9023" x="246.8505" y="283.9236">InMemoryPancakeRepository</text><line style="stroke:#181818;stroke-width:0.5;" x1="136.87" x2="528.2333" y1="295.0769" y2="295.0769"/><text fill="#000000" font-family="sans-serif" font-size="14" lengthAdjust="spacing" textLength="381.3633" x="141.87" y="312.072">-pancakes           : Map&lt;UUID, List&lt;PancakeRecipe&gt;&gt;</text><text fill="#000000" font-family="sans-serif" font-size="14" lengthAdjust="spacing" textLength="287.8271" x="141.87" y="328.3689">-pendingPancakes    : Map&lt;UUID, UUID&gt;</text><text fill="#000000" font-family="sans-serif" font-size="14" lengthAdjust="spacing" textLength="372.1348" x="141.87" y="344.6657">-pendingIngredients : Map&lt;UUID, List&lt;Ingredient&gt;&gt;</text><line style="stroke:#181818;stroke-width:0.5;" x1="136.87" x2="528.2333" y1="351.9675" y2="351.9675"/></g><!--class PancakeService--><g class="entity" data-qualified-name="org.pancakelab.service.PancakeService" data-source-line="110" id="ent0021"><rect fill="#F1F1F1" height="292.4531" rx="2.5" ry="2.5" style="stroke:#181818;stroke-width:0.5;" width="559.0938" x="2274" y="165.2969"/><ellipse cx="2493.9805" cy="181.2969" fill="#ADD1B2" rx="11" ry="11" style="stroke:#181818;stroke-width:1;"/><path d="M2496.9492,186.9375 Q2496.3711,187.2344 2495.7305,187.375 Q2495.0898,187.5313 2494.3867,187.5313 Q2491.8867,187.5313 2490.5586,185.8906 Q2489.2461,184.2344 2489.2461,181.1094 Q2489.2461,177.9844 2490.5586,176.3281 Q2491.8867,174.6719 2494.3867,174.6719 Q2495.0898,174.6719 2495.7305,174.8281 Q2496.3867,174.9844 2496.9492,175.2813 L2496.9492,178 Q2496.3242,177.4219 2495.7305,177.1563 Q2495.1367,176.875 2494.5117,176.875 Q2493.168,176.875 2492.4805,177.9531 Q2491.793,179.0156 2491.793,181.1094 Q2491.793,183.2031 2492.4805,184.2813 Q2493.168,185.3438 2494.5117,185.3438 Q2495.1367,185.3438 2495.7305,185.0781 Q2496.3242,184.7969 2496.9492,184.2188 L2496.9492,186.9375 Z " fill="#000000"/><text fill="#000000" font-family="sans-serif" font-size="14" lengthAdjust="spacing" textLength="110.6328" x="2514.4805" y="186.1436">PancakeService</text><line style="stroke:#181818;stroke-width:0.5;" x1="2275" x2="2832.0938" y1="197.2969" y2="197.2969"/><text fill="#000000" font-family="sans-serif" font-size="14" lengthAdjust="spacing" textLength="255.3223" x="2280" y="214.292">-orderRepository   : OrderRepository</text><text fill="#000000" font-family="sans-serif" font-size="14" lengthAdjust="spacing" textLength="287.041" x="2280" y="230.5889">-pancakeRepository : PancakeRepository</text><text fill="#000000" font-family="sans-serif" font-size="14" lengthAdjust="spacing" textLength="186.833" x="2280" y="246.8857">-orderLog          : OrderLog</text><line style="stroke:#181818;stroke-width:1;" x1="2275" x2="2832.0938" y1="254.1875" y2="254.1875"/><text fill="#000000" font-family="sans-serif" font-size="14" lengthAdjust="spacing" textLength="397.3184" x="2280" y="271.1826">+createOrder(building: int, room: int)             : OrderInfo</text><text fill="#000000" font-family="sans-serif" font-size="14" lengthAdjust="spacing" textLength="356.2412" x="2280" y="287.4795">+startPancake(orderId: UUID)                       : UUID</text><text fill="#000000" font-family="sans-serif" font-size="14" lengthAdjust="spacing" textLength="547.0938" x="2280" y="303.7764">+addIngredient(orderId: UUID, pancakeId: UUID, ingredient: Ingredient) : void</text><text fill="#000000" font-family="sans-serif" font-size="14" lengthAdjust="spacing" textLength="401.3242" x="2280" y="320.0732">+finishPancake(orderId: UUID, pancakeId: UUID)     : void</text><text fill="#000000" font-family="sans-serif" font-size="14" lengthAdjust="spacing" textLength="404.6738" x="2280" y="336.3701">+viewOrder(orderId: UUID)                          : List&lt;String&gt;</text><text fill="#000000" font-family="sans-serif" font-size="14" lengthAdjust="spacing" textLength="494.2246" x="2280" y="352.667">+removePancakes(description: String, orderId: UUID, count: int) : void</text><text fill="#000000" font-family="sans-serif" font-size="14" lengthAdjust="spacing" textLength="359.9395" x="2280" y="368.9639">+completeOrder(orderId: UUID)                      : void</text><text fill="#000000" font-family="sans-serif" font-size="14" lengthAdjust="spacing" textLength="386.9756" x="2280" y="385.2607">+listCompletedOrders()                             : Set&lt;UUID&gt;</text><text fill="#000000" font-family="sans-serif" font-size="14" lengthAdjust="spacing" textLength="354.0879" x="2280" y="401.5576">+prepareOrder(orderId: UUID)                       : void</text><text fill="#000000" font-family="sans-serif" font-size="14" lengthAdjust="spacing" textLength="378.6016" x="2280" y="417.8545">+listPreparedOrders()                              : Set&lt;UUID&gt;</text><text fill="#000000" font-family="sans-serif" font-size="14" lengthAdjust="spacing" textLength="401.9121" x="2280" y="434.1514">+deliverOrder(orderId: UUID)                       : DeliveryInfo</text><text fill="#000000" font-family="sans-serif" font-size="14" lengthAdjust="spacing" textLength="348.7969" x="2280" y="450.4482">+cancelOrder(orderId: UUID)                        : void</text></g><!--class OrderLog--><g class="entity" data-qualified-name="org.pancakelab.service.OrderLog" data-source-line="129" id="ent0022"><rect fill="#F1F1F1" height="129.4844" rx="2.5" ry="2.5" style="stroke:#181818;stroke-width:0.5;" width="670.6836" x="2289.21" y="566.6369"/><ellipse cx="2587.6602" cy="582.6369" fill="#ADD1B2" rx="11" ry="11" style="stroke:#181818;stroke-width:1;"/><path d="M2590.6289,588.2775 Q2590.0508,588.5744 2589.4102,588.715 Q2588.7696,588.8713 2588.0664,588.8713 Q2585.5664,588.8713 2584.2383,587.2306 Q2582.9258,585.5744 2582.9258,582.4494 Q2582.9258,579.3244 2584.2383,577.6681 Q2585.5664,576.0119 2588.0664,576.0119 Q2588.7696,576.0119 2589.4102,576.1681 Q2590.0664,576.3244 2590.6289,576.6213 L2590.6289,579.34 Q2590.0039,578.7619 2589.4102,578.4963 Q2588.8164,578.215 2588.1914,578.215 Q2586.8477,578.215 2586.1602,579.2931 Q2585.4727,580.3556 2585.4727,582.4494 Q2585.4727,584.5431 2586.1602,585.6213 Q2586.8477,586.6838 2588.1914,586.6838 Q2588.8164,586.6838 2589.4102,586.4181 Q2590.0039,586.1369 2590.6289,585.5588 L2590.6289,588.2775 Z " fill="#000000"/><text fill="#000000" font-family="sans-serif" font-size="14" lengthAdjust="spacing" textLength="65.2832" x="2608.1602" y="587.4836">OrderLog</text><line style="stroke:#181818;stroke-width:0.5;" x1="2290.21" x2="2958.8936" y1="598.6369" y2="598.6369"/><text fill="#000000" font-family="sans-serif" font-size="14" lengthAdjust="spacing" textLength="131.3047" x="2295.21" y="615.632">-log : StringBuilder</text><line style="stroke:#181818;stroke-width:1;" x1="2290.21" x2="2958.8936" y1="622.9338" y2="622.9338"/><text fill="#000000" font-family="sans-serif" font-size="14" lengthAdjust="spacing" textLength="591.5479" x="2295.21" y="639.9289">+logAddPancake(order: Order, desc: String, pancakes: List&lt;PancakeRecipe&gt;) : void</text><text fill="#000000" font-family="sans-serif" font-size="14" lengthAdjust="spacing" textLength="658.6836" x="2295.21" y="656.2257">+logRemovePancakes(order: Order, desc: String, count: int, list: List&lt;PancakeRecipe&gt;) : void</text><text fill="#000000" font-family="sans-serif" font-size="14" lengthAdjust="spacing" textLength="500.4248" x="2295.21" y="672.5226">+logCancelOrder(order: Order, pancakes: List&lt;PancakeRecipe&gt;) : void</text><text fill="#000000" font-family="sans-serif" font-size="14" lengthAdjust="spacing" textLength="502.8242" x="2295.21" y="688.8195">+logDeliverOrder(order: Order, pancakes: List&lt;PancakeRecipe&gt;) : void</text></g><!--class UtilsService--><g class="entity" data-qualified-name="org.pancakelab.service.UtilsService" data-source-line="138" id="ent0023"><rect fill="#F1F1F1" height="64.2969" rx="2.5" ry="2.5" style="stroke:#181818;stroke-width:0.5;" width="317.0605" x="2868.02" y="279.3769"/><ellipse cx="2981.0249" cy="295.3769" fill="#ADD1B2" rx="11" ry="11" style="stroke:#181818;stroke-width:1;"/><path d="M2983.9936,301.0175 Q2983.4155,301.3144 2982.7749,301.455 Q2982.1343,301.6113 2981.4311,301.6113 Q2978.9311,301.6113 2977.603,299.9706 Q2976.2905,298.3144 2976.2905,295.1894 Q2976.2905,292.0644 2977.603,290.4081 Q2978.9311,288.7519 2981.4311,288.7519 Q2982.1343,288.7519 2982.7749,288.9081 Q2983.4311,289.0644 2983.9936,289.3613 L2983.9936,292.08 Q2983.3686,291.5019 2982.7749,291.2363 Q2982.1811,290.955 2981.5561,290.955 Q2980.2124,290.955 2979.5249,292.0331 Q2978.8374,293.0956 2978.8374,295.1894 Q2978.8374,297.2831 2979.5249,298.3613 Q2980.2124,299.4238 2981.5561,299.4238 Q2982.1811,299.4238 2982.7749,299.1581 Q2983.3686,298.8769 2983.9936,298.2988 L2983.9936,301.0175 Z " fill="#000000"/><text fill="#000000" font-family="sans-serif" font-size="14" lengthAdjust="spacing" textLength="82.5508" x="3001.5249" y="300.2236">UtilsService</text><line style="stroke:#181818;stroke-width:0.5;" x1="2869.02" x2="3184.0805" y1="311.3769" y2="311.3769"/><line style="stroke:#181818;stroke-width:0.5;" x1="2869.02" x2="3184.0805" y1="319.3769" y2="319.3769"/><text fill="#000000" font-family="sans-serif" font-size="14" lengthAdjust="spacing" textLength="305.0605" x="2874.02" y="336.372">+validateUuid(id: UUID, label: String) : void</text></g><!--link Pancake to PancakeRecipe--><g class="link" data-entity-1="ent0014" data-entity-2="ent0013" data-link-type="extension" data-source-line="143" id="lnk24"><path codeLine="143" d="M1568.89,688.1669 C1564.94,735.4669 1560.8691,784.1894 1557.3591,826.1894" fill="none" id="Pancake-to-PancakeRecipe" style="stroke:#181818;stroke-width:1;stroke-dasharray:7,7;"/><polygon fill="none" points="1555.86,844.1269,1563.3382,826.6891,1551.3799,825.6897,1555.86,844.1269" style="stroke:#181818;stroke-width:1;"/></g><!--link InMemoryOrderRepository to OrderRepository--><g class="link" data-entity-1="ent0018" data-entity-2="ent0016" data-link-type="extension" data-source-line="144" id="lnk25"><path codeLine="144" d="M955.95,352.1369 C947.01,393.3269 936.4174,442.1163 923.9174,499.7163" fill="none" id="InMemoryOrderRepository-to-OrderRepository" style="stroke:#181818;stroke-width:1;stroke-dasharray:7,7;"/><polygon fill="none" points="920.1,517.3069,929.7809,500.9888,918.0539,498.4439,920.1,517.3069" style="stroke:#181818;stroke-width:1;"/></g><!--link InMemoryPancakeRepository to PancakeRepository--><g class="link" data-entity-1="ent0019" data-entity-2="ent0017" data-link-type="extension" data-source-line="145" id="lnk26"><path codeLine="145" d="M342.05,360.4469 C350.68,403.9869 360.1998,452.0505 371.2398,507.7405" fill="none" id="InMemoryPancakeRepository-to-PancakeRepository" style="stroke:#181818;stroke-width:1;stroke-dasharray:7,7;"/><polygon fill="none" points="374.74,525.3969,377.1253,506.5737,365.3543,508.9072,374.74,525.3969" style="stroke:#181818;stroke-width:1;"/></g><!--link PancakeService to OrderRepository--><g class="link" data-entity-1="ent0021" data-entity-2="ent0016" data-link-type="aggregation" data-source-line="147" id="lnk27"><path codeLine="147" d="M2261.922,335.14 C1911.562,364.53 1344.36,420.3269 1140.55,488.7869 C1117.73,496.4469 1100.0514,503.7135 1077.6814,514.7435" fill="none" id="PancakeService-OrderRepository" style="stroke:#181818;stroke-width:1;"/><polygon fill="none" points="2273.88,334.1369,2267.5666,330.6524,2261.922,335.14,2268.2354,338.6244,2273.88,334.1369" style="stroke:#181818;stroke-width:1;"/><polygon fill="#181818" points="1072.3,517.3969,1082.141,517.0044,1076.7845,515.1857,1078.6032,509.8292,1072.3,517.3969" style="stroke:#181818;stroke-width:1;"/></g><!--link PancakeService to PancakeRepository--><g class="link" data-entity-1="ent0021" data-entity-2="ent0017" data-link-type="aggregation" data-source-line="148" id="lnk28"><path codeLine="148" d="M2261.6696,344.6775 C1972.2396,375.9875 1519.1,423.3069 1116.55,457.7469 C919.9,474.5669 863.74,436.0469 673.55,488.7869 C640.93,497.8369 613.1189,508.385 581.4689,522.975" fill="none" id="PancakeService-PancakeRepository" style="stroke:#181818;stroke-width:1;"/><polygon fill="none" points="2273.6,343.3869,2267.2046,340.0554,2261.6696,344.6775,2268.065,348.009,2273.6,343.3869" style="stroke:#181818;stroke-width:1;"/><polygon fill="#181818" points="576.02,525.4869,585.8679,525.3517,580.5608,523.3937,582.5188,518.0865,576.02,525.4869" style="stroke:#181818;stroke-width:1;"/></g><!--link PancakeService to OrderLog--><g class="link" data-entity-1="ent0021" data-entity-2="ent0022" data-link-type="aggregation" data-source-line="149" id="lnk29"><path codeLine="149" d="M2588.6536,469.6688 C2597.1536,507.7588 2601.9839,529.3208 2608.9739,560.6608" fill="none" id="PancakeService-OrderLog" style="stroke:#181818;stroke-width:1;"/><polygon fill="none" points="2586.04,457.9569,2583.4428,464.684,2588.6536,469.6688,2591.2508,462.9416,2586.04,457.9569" style="stroke:#181818;stroke-width:1;"/><polygon fill="#181818" points="2610.28,566.5169,2612.2249,556.862,2609.1916,561.6368,2604.4167,558.6035,2610.28,566.5169" style="stroke:#181818;stroke-width:1;"/></g><!--link PancakeService to OrderInfo--><g class="link" data-entity-1="ent0021" data-entity-2="ent0003" data-link-type="dependency" data-source-line="150" id="lnk30"><path codeLine="150" d="M2273.62,357.2069 C2177.69,383.2469 2074.69,424.2769 1995.55,488.7869 C1967.08,511.9969 1949.442,542.8128 1936.702,572.8628" fill="none" id="PancakeService-to-OrderInfo" style="stroke:#181818;stroke-width:1;stroke-dasharray:7,7;"/><polygon fill="#181818" points="1934.36,578.3869,1941.5557,571.6621,1936.3116,573.7835,1934.1903,568.5395,1934.36,578.3869" style="stroke:#181818;stroke-width:1;"/></g><!--link PancakeService to DeliveryInfo--><g class="link" data-entity-1="ent0021" data-entity-2="ent0006" data-link-type="dependency" data-source-line="151" id="lnk31"><path codeLine="151" d="M2285.78,458.0269 C2271.53,467.9869 2257.69,478.2669 2244.55,488.7869 C2214.83,512.5869 2189.788,538.8556 2166.868,565.6756" fill="none" id="PancakeService-to-DeliveryInfo" style="stroke:#181818;stroke-width:1;stroke-dasharray:7,7;"/><polygon fill="#181818" points="2162.97,570.2369,2171.8579,565.9936,2166.2184,566.4358,2165.7762,560.7962,2162.97,570.2369" style="stroke:#181818;stroke-width:1;"/></g><!--link PancakeService to Order--><g class="link" data-entity-1="ent0021" data-entity-2="ent0011" data-link-type="dependency" data-source-line="152" id="lnk32"><path codeLine="152" d="M2273.64,334.6169 C1983.76,361.1769 1553.1,411.9869 1406.55,488.7869 C1384.97,500.0969 1369.1976,512.0395 1351.5376,529.4095" fill="none" id="PancakeService-to-Order" style="stroke:#181818;stroke-width:1;stroke-dasharray:7,7;"/><polygon fill="#181818" points="1347.26,533.6169,1356.4813,530.1576,1350.8247,530.1107,1350.8715,524.4541,1347.26,533.6169" style="stroke:#181818;stroke-width:1;"/></g><!--link PancakeService to Pancake--><g class="link" data-entity-1="ent0021" data-entity-2="ent0014" data-link-type="dependency" data-source-line="153" id="lnk33"><path codeLine="153" d="M2273.85,357.6269 C2131.59,385.8169 1957.86,428.4269 1809.55,488.7869 C1754.45,511.2069 1702.1464,542.025 1657.7864,571.135" fill="none" id="PancakeService-to-Pancake" style="stroke:#181818;stroke-width:1;stroke-dasharray:7,7;"/><polygon fill="#181818" points="1652.77,574.4269,1662.4891,572.8334,1656.9503,571.6837,1658.1,566.1449,1652.77,574.4269" style="stroke:#181818;stroke-width:1;"/></g><!--link PancakeService to Ingredient--><g class="link" data-entity-1="ent0021" data-entity-2="ent0008" data-link-type="dependency" data-source-line="154" id="lnk34"><path codeLine="154" d="M2295,458.0369 C2286.41,467.7469 2278.52,477.9969 2271.55,488.7869 C2203.36,594.3669 2326.75,684.6969 2233.55,769.0169 C2214.59,786.1669 2027.03,766.8869 2003.55,777.0169 C1981.52,786.5169 1965.7108,798.4628 1949.0608,815.4428" fill="none" id="PancakeService-to-Ingredient" style="stroke:#181818;stroke-width:1;stroke-dasharray:7,7;"/><polygon fill="#181818" points="1944.86,819.7269,1954.0173,816.1013,1948.3607,816.1568,1948.3052,810.5002,1944.86,819.7269" style="stroke:#181818;stroke-width:1;"/></g><!--link PancakeService to OrderStatus--><g class="link" data-entity-1="ent0021" data-entity-2="ent0009" data-link-type="dependency" data-source-line="155" id="lnk35"><path codeLine="155" d="M2273.97,345.8569 C2097.58,373.2969 1893.1,419.1569 1838.55,488.7869 C1800.15,537.8069 1795.6,723.9269 1838.55,769.0169 C1851.21,782.3069 1987.44,768.2069 2003.55,777.0169 C2024.41,788.4169 2037.7174,803.2105 2049.9374,822.7405" fill="none" id="PancakeService-to-OrderStatus" style="stroke:#181818;stroke-width:1;stroke-dasharray:7,7;"/><polygon fill="#181818" points="2053.12,827.8269,2051.7371,818.0756,2050.4679,823.5882,2044.9552,822.319,2053.12,827.8269" style="stroke:#181818;stroke-width:1;"/></g><!--link InMemoryOrderRepository to Order--><g class="link" data-entity-1="ent0018" data-entity-2="ent0011" data-link-type="dependency" data-source-line="157" id="lnk36"><path codeLine="157" d="M1002.94,352.1369 C1046.72,397.3169 1115.7047,468.518 1174.7747,529.478" fill="none" id="InMemoryOrderRepository-to-Order" style="stroke:#181818;stroke-width:1;stroke-dasharray:7,7;"/><polygon fill="#181818" points="1178.95,533.7869,1175.5596,524.54,1175.4706,530.1961,1169.8144,530.1071,1178.95,533.7869" style="stroke:#181818;stroke-width:1;"/></g><!--link InMemoryOrderRepository to OrderStatus--><g class="link" data-entity-1="ent0018" data-entity-2="ent0009" data-link-type="dependency" data-source-line="158" id="lnk37"><path codeLine="158" d="M1100.7,325.8669 C1298.81,348.1069 1652.54,399.3669 1740.55,488.7869 C1829.83,579.4969 1702.31,686.8969 1799.55,769.0169 C1816.88,783.6469 1983.6,766.2269 2003.55,777.0169 C2024.46,788.3169 2037.7935,803.0867 2049.9935,822.6367" fill="none" id="InMemoryOrderRepository-to-OrderStatus" style="stroke:#181818;stroke-width:1;stroke-dasharray:7,7;"/><polygon fill="#181818" points="2053.17,827.7269,2051.7987,817.9739,2050.5229,823.4851,2045.0118,822.2093,2053.17,827.7269" style="stroke:#181818;stroke-width:1;"/></g><!--link InMemoryPancakeRepository to PancakeRecipe--><g class="link" data-entity-1="ent0019" data-entity-2="ent0013" data-link-type="dependency" data-source-line="159" id="lnk38"><path codeLine="159" d="M226.68,360.3869 C175.61,389.5869 119.3,432.2669 90.55,488.7869 C34.07,599.7869 6,677.5669 90.55,769.0169 C181.94,867.8569 1114.2301,881.6631 1437.6601,883.4831" fill="none" id="InMemoryPancakeRepository-to-PancakeRecipe" style="stroke:#181818;stroke-width:1;stroke-dasharray:7,7;"/><polygon fill="#181818" points="1443.66,883.5169,1434.6827,879.4663,1438.6601,883.4887,1434.6376,887.4662,1443.66,883.5169" style="stroke:#181818;stroke-width:1;"/></g><!--link InMemoryPancakeRepository to Ingredient--><g class="link" data-entity-1="ent0019" data-entity-2="ent0008" data-link-type="dependency" data-source-line="160" id="lnk39"><path codeLine="160" d="M243.06,360.2869 C196.68,390.3769 144.43,433.9369 118.55,488.7869 C91.98,545.1069 74.63,724.8669 118.55,769.0169 C134.44,784.9769 1719.05,770.2669 1740.55,777.0169 C1769.23,786.0069 1792.4297,798.8505 1816.6397,816.0605" fill="none" id="InMemoryPancakeRepository-to-Ingredient" style="stroke:#181818;stroke-width:1;stroke-dasharray:7,7;"/><polygon fill="#181818" points="1821.53,819.5369,1816.5121,811.0622,1817.4547,816.6399,1811.877,817.5826,1821.53,819.5369" style="stroke:#181818;stroke-width:1;"/></g><!--link Pancake to Ingredient--><g class="link" data-entity-1="ent0014" data-entity-2="ent0008" data-link-type="dependency" data-source-line="161" id="lnk40"><path codeLine="161" d="M1645.01,688.1669 C1694.85,727.0769 1756.7505,775.3947 1808.7705,816.0047" fill="none" id="Pancake-to-Ingredient" style="stroke:#181818;stroke-width:1;stroke-dasharray:7,7;"/><polygon fill="#181818" points="1813.5,819.6969,1808.8672,811.0057,1809.5588,816.6201,1803.9443,817.3117,1813.5,819.6969" style="stroke:#181818;stroke-width:1;"/></g><?plantuml-src jLTRZ-8s57xdLrZx1De9wZD2I2n4cgWmYM1efRwiJEB9k1FYr3QiQBl_lOxZ97RYNDXLymJEkVcSxtpdX6EU8130D8GVQ0VFO9D0ni0MmvZ2osJ2Fd2QGV4JP33yW34wyhjGe2ZaC8qJf0c4kUQQSuhFLuwyaAH7_3S2lqmcIXLy8ZIUPuMl19xd4IUVm3yJ81wf37mQ8UgbRmGiby85eT5gfGJovpF0qNIc_Yp0wUHjjNVdAquYdCP2OW5mohLNb92BKgnVVPzedhSemJT4xttEYOnEHl3JpejNAXTCQkqmuykZI5yQhrI0txjpXzBhXPNPo_y0BuqfYZ1AkHRrTdtuzUlcsT_uk_MhMntllPtj-FTdBmZSxTVDmLtlgzFdzH_kxkNqUgnE74UxH8HPbi3x2xmWUO_Y2dgAPNYojaSE-PLfyVc1-rBzsVZxOEU-kdLYWuCRh0_QmTRTUR-vvKblXYuaGea5NvftHm3A3YUdgcYZQ8wifwMQHawaesbfGWe-IKNvSwP9neXxFQ0MhxzqGqkyFNIZ2_rrXGcRaWNmpt-AXitrpuGa2AQQr3jaxnkHgi98gprwiriUL43C7s40qJSOLhHoG27Ea2QXUhd2QmV-DOWX5bASSKpI9iIqKEiwAySDbuxkidHOTutfL2jd4OEoETLij4tC_iSx3WAUeemmp0czb-MeIo41UQW435vZy8QcajmMXTmC6Cy2t0YED8Ktd4PVxWAsYX4BrCuq1L_U0oPBQMzbGhOWWGxbfcuXh5iGk4CSTVcsX7k1z6D3BbckPelPgX28R49gbRShg0aopWDcVG41QwDYrXUJNKTakt8aqyccCxEqHyINkPL6ZKfNDgMMbke_I-DRyGQZg6mcuo9FvJnScCmn6m2Yh-Po9oBQZ-f4musU0Oekv8Q2SZmtmjHQjUpJ9v0MrDuEih2rJf978srPOXnIRarT_stROqMKe6QjgKfxVS6QjXRQMZ7hA05cxsLG3KkpuHBO-FUpe744QO3IVEuzbBPMV6AyAJkF1DVTJigO_oqL0twqHQq0njhffNk13dhlfcUdM3kPDBA7sRAeK8DNdHmRWYSHQqlf36frtjUjJhMZ6hUfNLZwI0yhAz8LQ4PqRPDvAd7FcDCDPnfYHkp93D4R3f6v1wfmZiMxThQrLCY9P9wrawF9BzharxI-8x6UIr-TsJV9a2B8qS0-sS1QzHdrKzmnG1fswXxca046wJVRCNzl67qhKZIM5JjMiHRpMwc-4MD8hlabxUmVgl4xFhoMYKH4sZl5BIPiOpqhPle3YRA6qhiQZ0mbAfQbXqBHFz7r18jIeUIHwcktClYmR4I33n8ILyku_193rDweGd3TM6nK9nOBGmsVab6jIuW5GiBomRAFT5YlqVWao_M0bqqpbPMB7mXvsohn3rWpwdFYE65jpXRj3nCS2POyNN4qnLLV2lf7IPcOXbbXkFn8R3_p-RyhOEwWawv9NKetPqJtS6rOhpGcZQcaFSHnB2w6vDikHdd8Hr6tu7o-0a2RC4EIHjUECZiefTuFojLJPvpZOb6Qz9QwZdAKb3BP1mRjHWseTKctxsN5i2dw7m00?></g></svg>